# xmcd CD database file
#
# Track frame offsets:
#	150
#	17151
#	33601
#	50449
#	63638
#	79608
#	99026
#	117617
#	135646
#	154866
#	176072
#	195259
#
# Disc length: 2883 seconds
#
# Revision: 0
# Processed by: cddbd v1.5.1PL0 Copyright (c) Steve Scherf et al.
# Submitted via: CDex 1.51
#
DISCID=9b0b410c
DTITLE=ピラニアンズ - EPコレクション
DYEAR=2002
DGENRE=JPop
TTITLE0=ジョルジュの恋(LIVE AT MAEBASHI)
TTITLE1=チキンズ パレード(LIVE AT UTSUNOMIYA)
TTITLE2=サンバNo.3(LIVE AT YO-CHOCO)
TTITLE3=UNDECIDED(LIVE AT YO-CHOCO)
TTITLE4=サルバド(LIVE AT YO-CHOCO)
TTITLE5=スムースワン(LIVE AT YO-CHOCO)
TTITLE6=ピアニカ絶叫
TTITLE7=アフター ユーヴ ゴーン
TTITLE8=ビー・マイ・ベイビー (EP MIX) ribbon&ピラニアンズ
TTITLE9=風よつたえて ribbon&ピラニアンズ
TTITLE10=ビー・マイ・ベイビー (version) ribbon&ピラニアンズ
TTITLE11=風よつたえて (version) ribbon&ピラニアンズ
EXTD=YEAR: 2002
EXTT0=
EXTT1=
EXTT2=
EXTT3=
EXTT4=
EXTT5=
EXTT6=
EXTT7=
EXTT8=
EXTT9=
EXTT10=
EXTT11=
PLAYORDER=
